HIERARCHY
ROOT Hips
{
	OFFSET	0.00	0.00	0.00
	CHANNELS 6 Xposition Yposition Zposition Zrotation Xrotation Yrotation
	JOINT LeftUpLeg
	{
		OFFSET	 0.126116	-0.014019	-0.065224
		CHANNELS 3 Zrotation Xrotation Yrotation
		JOINT LeftLeg
		{
			OFFSET	 0.000000	 0.000000	 0.569914
			CHANNELS 3 Zrotation Xrotation Yrotation
			JOINT LeftFoot
			{
				OFFSET	 0.000000	 0.000000	 0.544423
				CHANNELS 3 Zrotation Xrotation Yrotation
				JOINT LeftToeBase
				{
					OFFSET	 0.000000	 0.000000	 0.207117
					CHANNELS 3 Zrotation Xrotation Yrotation
					End Site
					{
						OFFSET	 0.000000	 0.000000	 0.207117
					}
				}
			}
		}
	}
	JOINT RightUpLeg
	{
		OFFSET	-0.124023	-0.008373	-0.065224
		CHANNELS 3 Zrotation Xrotation Yrotation
		JOINT RightLeg
		{
			OFFSET	 0.000000	 0.000000	 0.570047
			CHANNELS 3 Zrotation Xrotation Yrotation
			JOINT RightFoot
			{
				OFFSET	 0.000000	 0.000000	 0.544354
				CHANNELS 3 Zrotation Xrotation Yrotation
				JOINT RightToeBase
				{
					OFFSET	 0.000000	 0.000000	 0.207540
					CHANNELS 3 Zrotation Xrotation Yrotation
					End Site
					{
						OFFSET	 0.000000	 0.000000	 0.207540
					}
				}
			}
		}
	}
	JOINT Spine
	{
		OFFSET	 0.000184	-0.007763	 0.117403
		CHANNELS 3 Zrotation Xrotation Yrotation
		JOINT Spine1
		{
			OFFSET	 0.000000	 0.000000	 0.137269
			CHANNELS 3 Zrotation Xrotation Yrotation
			JOINT Spine2
			{
				OFFSET	 0.000000	 0.000000	 0.156879
				CHANNELS 3 Zrotation Xrotation Yrotation
				JOINT LeftShoulder
				{
					OFFSET	 0.080501	-0.002496	 0.160144
					CHANNELS 3 Zrotation Xrotation Yrotation
					JOINT LeftArm
					{
						OFFSET	 0.000000	 0.000000	 0.164363
						CHANNELS 3 Zrotation Xrotation Yrotation
						JOINT LeftForeArm
						{
							OFFSET	 0.000000	 0.000000	 0.364576
							CHANNELS 3 Zrotation Xrotation Yrotation
							JOINT LeftHand
							{
								OFFSET	 0.000000	 0.000000	 0.360812
								CHANNELS 3 Zrotation Xrotation Yrotation
								JOINT LeftHandIndex1
								{
									OFFSET	 0.000000	 0.000000	 0.086006
									CHANNELS 3 Zrotation Xrotation Yrotation
									JOINT LeftHandIndex2
									{
										OFFSET	 0.000000	 0.000000	 0.047236
										CHANNELS 3 Zrotation Xrotation Yrotation
										JOINT LeftHandIndex3
										{
											OFFSET	-0.004284	-0.000551	 0.038166
											CHANNELS 3 Zrotation Xrotation Yrotation
											End Site
											{
												OFFSET	-0.004284	-0.000551	 0.038166
											}
										}
									}
								}
							}
						}
					}
				}
				JOINT Neck
				{
					OFFSET	 0.000000	 0.000000	 0.176489
					CHANNELS 3 Zrotation Xrotation Yrotation
					JOINT Head
					{
						OFFSET	 0.000000	-0.001747	 0.077940
						CHANNELS 3 Zrotation Xrotation Yrotation
						End Site
						{
							OFFSET	 0.000000	-0.001747	 0.077940
						}
					}
				}
				JOINT RightShoulder
				{
					OFFSET	-0.080363	 0.000306	 0.159706
					CHANNELS 3 Zrotation Xrotation Yrotation
					JOINT RightArm
					{
						OFFSET	 0.000000	 0.000000	 0.164196
						CHANNELS 3 Zrotation Xrotation Yrotation
						JOINT RightForeArm
						{
							OFFSET	 0.000000	 0.000000	 0.365611
							CHANNELS 3 Zrotation Xrotation Yrotation
							JOINT RightHand
							{
								OFFSET	 0.000000	 0.000000	 0.360648
								CHANNELS 3 Zrotation Xrotation Yrotation
								JOINT RightHandIndex1
								{
									OFFSET	 0.000000	 0.000000	 0.069977
									CHANNELS 3 Zrotation Xrotation Yrotation
									JOINT RightHandIndex2
									{
										OFFSET	 0.000000	 0.000000	 0.052305
										CHANNELS 3 Zrotation Xrotation Yrotation
										JOINT RightHandIndex3
										{
											OFFSET	 0.009002	-0.000782	 0.042196
											CHANNELS 3 Zrotation Xrotation Yrotation
											End Site
											{
												OFFSET	 0.009002	-0.000782	 0.042196
											}
										}
									}
								}
							}
						}
					}
				}
			}
		}
	}
}
MOTION
Frames:    11
Frame Time: 0.03333334
-0.057493	-2.230738	 1.232815	 4.199543	-1.664031	-3.151081	 0.360442	-7.547780	-170.996500	 0.410543	-28.526770	 0.023067	 25.380080	 71.539700	-28.606420	-2.371120	 31.324840	-0.063366	-3.497829	-28.830850	-176.325800	 10.398450	-53.093070	 8.914820	 9.023396	 66.906890	-4.324474	 2.357992	 33.143910	 0.106566	-2.968036	 8.927466	 1.757758	-0.646136	 2.330639	 0.353877	-1.172142	-2.356726	-0.546124	-93.791850	 58.884140	 175.710200	 23.883880	 44.240740	-27.852320	-0.759982	-2.084172	-17.487770	 0.428088	-6.270337	-6.124393	-4.869411	 19.241280	-2.786458	-3.889840	 21.366330	 2.211194	-4.808244	 5.545662	 0.146960	-0.119198	-5.023428	 0.162074	-3.372400	 2.262235	 2.687782	 89.824970	 61.591060	-179.898000	-21.054650	 53.331790	 11.282670	-1.324344	-2.613457	 13.598730	-4.722144	 7.823196	 0.720030	 6.302928	 25.834200	-0.572002	 1.750984	 45.765190	-6.872851	 0.374415	 24.938390	 3.645949
-0.058336	-2.244260	 1.233450	 5.168095	-1.164709	-3.138733	-0.533247	-7.491553	-171.084500	 0.949227	-28.429360	 0.283988	 24.728800	 71.467800	-28.422690	-2.369431	 31.609380	-0.069798	-5.581594	-30.235680	-176.400800	 11.080660	-51.471310	 9.312491	 16.023460	 73.889790	-12.597550	 2.358909	 33.008790	 0.103428	-3.676085	 8.662137	 1.602481	-0.631465	 1.925879	 0.477083	-1.321766	-2.356492	-0.560635	-93.972690	 59.016570	 175.308300	 24.660670	 43.197810	-28.719490	-1.657714	-1.879452	-18.229800	 0.855942	-6.998875	-7.649047	-4.868525	 19.262680	-2.787555	-3.882335	 21.462400	 2.203578	-4.807900	 5.549721	 0.146723	-0.066568	-5.084827	 0.191780	-3.341223	 2.190807	 2.489681	 89.767110	 61.664190	 179.964200	-20.417470	 53.835220	 10.179160	-1.649046	-2.633775	 13.301000	-4.775484	 7.914883	 0.505979	 6.290889	 24.589930	-0.537067	 1.922119	 44.402930	-7.025729	 0.585804	 24.014430	 3.538213
-0.059361	-2.263283	 1.233801	 6.077657	-0.317734	-3.210545	-1.375107	-7.444168	-171.144800	 1.260343	-28.180260	 0.428648	 24.033750	 71.460590	-27.942520	-2.367803	 31.878100	-0.075896	-7.823936	-32.339490	-176.530600	 12.053940	-48.933420	 9.729149	 35.114340	 79.909010	-33.419800	 2.359199	 32.966160	 0.102438	-4.230795	 8.084205	 1.396383	-0.643118	 1.555540	 0.735588	-1.493816	-2.392056	-0.642585	-94.201910	 59.016350	 174.819200	 24.973340	 41.843640	-29.299800	-2.035981	-1.905113	-19.686600	 1.472782	-8.208754	-8.393283	-4.860694	 19.471800	-2.803166	-3.868756	 21.635790	 2.189781	-4.801868	 5.620809	 0.142561	-0.020949	-5.121127	 0.259061	-3.358489	 2.135339	 2.366539	 89.676530	 61.773970	 179.747100	-19.704250	 54.442680	 8.775436	-2.377211	-2.755140	 13.036740	-5.125429	 7.793954	 0.144605	 6.266825	 22.901650	-0.562902	 2.112142	 42.800600	-7.194050	 0.936256	 22.448700	 3.365819
-0.059896	-2.286978	 1.233518	 6.510248	 0.473638	-3.595553	-1.716341	-6.794651	-170.910900	 1.459936	-27.462060	 0.510662	 24.055600	 71.874200	-28.115590	-2.364910	 32.339260	-0.086434	-8.258761	-34.489460	-176.161600	 12.563220	-45.600040	 9.601978	 57.354580	 80.626740	-57.484960	 2.361124	 32.679370	 0.095791	-4.449605	 7.393499	 1.528721	-0.617472	 1.645792	 0.946491	-1.612131	-2.525680	-0.731491	-94.394260	 58.934680	 174.421700	 24.833440	 40.239910	-29.972320	-2.916890	-1.750777	-21.532620	 1.298089	-9.906485	-7.826219	-4.843516	 19.867510	-2.820787	-3.847545	 21.905190	 2.168221	-4.788375	 5.779559	 0.133240	-0.001863	-5.195491	 0.322120	-3.415201	 2.083334	 2.348363	 89.538700	 61.942250	 179.413500	-18.796810	 55.088890	 7.236917	-3.648398	-3.016377	 12.841070	-5.713929	 7.549008	-0.880263	 6.231987	 20.900710	-0.632725	 2.289815	 41.210430	-7.349926	 1.374604	 20.431310	 3.161604
-0.060521	-2.311318	 1.232550	 6.627939	 0.809660	-3.894332	-1.866524	-5.572827	-170.763600	 1.549681	-26.729800	 0.538437	 23.650490	 71.891770	-27.748560	-2.358536	 33.297890	-0.108587	-6.827954	-35.717530	-175.426600	 11.878030	-41.998490	 8.531050	 98.176400	 79.253930	-99.036490	 2.352389	 33.932630	 0.125068	-4.619065	 6.914229	 1.701876	-0.574659	 2.237536	 1.036855	-1.640113	-2.777893	-0.764288	-94.481200	 58.866500	 174.247700	 24.052050	 38.942360	-30.622240	-3.507856	-1.635816	-23.058690	 0.850998	-11.061070	-7.369665	-4.825170	 20.228740	-2.822741	-3.823030	 22.213950	 2.143330	-4.769639	 5.999470	 0.120255	 0.023803	-5.280352	 0.343367	-3.410282	 2.006714	 2.296595	 89.443910	 62.033140	 179.182300	-17.716860	 55.607660	 5.560833	-4.924693	-3.326693	 12.847750	-6.104481	 6.907549	-2.183956	 6.194883	 18.993350	-0.711251	 2.539353	 38.814100	-7.566094	 1.784141	 18.488710	 2.982849
-0.061848	-2.344237	 1.230322	 6.909802	 0.868379	-4.166173	-2.244178	-3.624812	-170.712500	 1.757700	-25.917160	 0.614178	 22.281240	 71.370740	-26.473530	-2.340476	 35.668910	-0.165071	-5.885561	-36.483690	-174.673700	 11.868030	-36.758680	 7.635169	 96.340740	 77.225490	-98.335090	 2.336705	 35.914970	 0.172766	-5.112799	 6.946073	 1.835284	-0.538984	 2.537129	 1.233523	-1.640600	-3.115478	-0.852240	-94.540680	 58.895400	 174.116600	 22.670530	 37.786420	-31.502840	-3.616032	-1.681320	-24.239350	 0.345432	-13.358180	-7.664489	-4.841066	 20.473770	-2.987056	-3.793314	 22.584980	 2.113149	-4.738560	 6.362705	 0.098647	 0.094747	-5.381852	 0.354457	-3.320532	 1.991248	 2.045430	 89.366030	 61.983690	 178.995800	-16.216680	 56.093670	 2.880106	-6.193383	-3.755704	 13.251290	-6.252204	 5.328035	-3.578638	 6.166297	 16.687560	-0.701298	 2.827211	 35.789580	-7.810884	 2.260976	 16.159150	 2.790122
-0.064758	-2.380785	 1.227056	 7.162950	 0.811465	-3.971168	-2.779701	-1.633934	-171.206400	 2.213681	-25.692690	 0.807041	 19.132050	 69.628260	-23.511900	-2.294673	 40.296600	-0.283605	-5.387619	-36.549770	-174.609900	 10.883140	-30.718920	 6.007652	 62.131740	 76.459490	-63.958150	 2.338215	 35.736900	 0.168403	-5.762161	 6.934825	 1.706041	-0.470832	 3.096125	 1.194282	-1.635285	-3.445065	-0.874402	-94.524310	 59.161710	 174.107100	 21.072840	 36.966850	-32.936310	-3.665509	-1.673424	-24.426410	-0.506225	-16.250490	-8.387860	-4.872673	 20.585910	-3.204122	-3.768278	 22.894820	 2.087721	-4.696363	 6.852911	 0.069143	 0.168997	-5.470606	 0.289160	-3.153038	 2.040606	 1.864438	 89.356340	 61.706280	 178.982900	-14.928070	 56.246030	 0.238860	-7.252028	-4.186863	 13.759070	-6.484060	 3.159078	-4.710421	 6.182740	 14.409250	-0.476874	 2.995941	 33.874680	-7.951746	 2.705012	 13.927770	 2.626319
-0.069503	-2.420303	 1.222327	 7.425631	 0.481116	-3.194427	-2.922418	 0.612559	-172.471700	 1.839805	-26.182520	 0.656264	 15.578400	 66.347500	-19.171270	-2.176017	 48.109970	-0.519180	-4.381767	-36.563480	-174.967200	 7.237147	-25.905550	 3.511412	 26.408590	 70.769910	-24.571980	 2.340583	 35.452820	 0.161473	-6.470289	 6.978341	 0.955010	-0.402490	 4.077219	 1.347884	-1.658089	-3.766131	-1.067905	-94.461450	 59.351370	 174.210400	 19.551970	 36.207870	-34.491700	-3.890072	-1.571036	-24.427390	-1.320550	-18.611460	-8.658405	-4.891623	 20.702220	-3.351703	-3.755058	 23.057240	 2.074313	-4.641965	 7.479750	 0.030841	 0.250715	-5.476410	 0.245714	-2.963856	 2.192388	 2.033165	 89.353930	 61.449230	 178.986600	-13.922750	 56.192820	-1.841710	-8.179572	-4.500899	 13.951820	-7.035311	 0.671527	-5.390267	 6.261295	 12.228040	-0.018611	 3.118794	 32.409420	-8.052952	 3.083367	 11.982500	 2.499196
-0.075490	-2.469312	 1.214210	 8.423804	-0.309649	-2.293558	-2.504935	 3.893577	-174.342300	-0.118098	-26.777520	-0.212119	 12.138370	 58.985110	-12.910230	-1.961804	 56.392460	-0.850871	-2.037346	-38.164540	-174.372100	 6.268007	-24.148130	 2.886344	 4.903546	 58.583000	 0.466756	 2.334317	 36.192260	 0.179580	-7.626863	 7.298046	 0.073380	-0.494664	 5.561637	 1.469145	-1.774533	-4.189766	-1.305124	-94.396330	 59.080660	 174.394200	 18.013710	 35.024890	-35.731600	-4.302795	-1.475418	-25.853050	-1.790758	-20.182600	-8.408371	-4.896111	 20.907840	-3.446784	-3.735363	 23.298260	 2.054312	-4.574667	 8.247132	-0.016959	 0.362325	-5.417396	 0.284516	-2.799865	 2.531496	 2.306563	 89.225120	 61.413390	 178.683200	-12.969930	 56.107910	-3.604982	-8.572708	-4.649449	 14.069410	-7.580806	-2.483402	-4.902313	 6.336867	 10.017950	 0.356102	 3.297019	 30.171260	-8.197511	 3.414576	 10.249000	 2.397663
-0.081590	-2.515800	 1.206173	 9.689296	-0.879746	-1.394781	-2.732258	 6.541946	-176.194600	 0.672999	-27.591100	 0.148345	 7.942559	 47.680350	-7.663098	-1.325052	 67.986900	-1.643986	-2.466713	-40.226590	-174.891700	 7.442261	-24.112480	 3.369194	 0.450007	 47.198800	 4.919458	 2.343299	 35.119560	 0.153399	-8.685521	 7.397087	-0.534921	-0.809131	 6.916382	 0.986788	-1.968624	-4.537255	-1.219312	-94.295870	 59.204160	 174.590000	 17.180890	 34.258960	-37.106910	-4.165304	-1.609936	-26.831310	-1.789594	-21.298890	-8.824482	-4.845127	 21.167340	-3.232841	-3.696115	 23.773600	 2.014476	-4.523452	 8.825241	-0.053637	 0.399148	-5.350481	 0.260852	-2.759656	 2.903404	 2.344102	 89.076080	 61.065170	 178.351200	-12.152140	 55.662240	-5.197875	-7.955007	-4.661698	 14.619680	-7.234544	-5.465487	-3.751556	 6.360847	 8.856223	 0.467862	 3.374686	 29.152410	-8.259601	 3.596613	 9.285028	 2.345838
-0.089075	-2.573814	 1.198560	 10.238070	-1.198783	-0.307841	 2.332487	 9.434913	 179.644500	 1.565415	-28.486780	 0.578469	 4.398287	 32.575190	 0.938583	-1.239864	 68.922280	-1.741482	-4.454946	-40.737370	-177.131600	 6.611036	-22.845980	 2.874507	 0.222220	 38.538350	 6.161421	 2.362456	 32.475070	 0.091088	-9.289458	 7.406312	-1.148364	-1.236774	 7.673538	 0.241537	-2.094815	-4.687559	-1.064123	-94.141780	 59.744720	 174.839600	 16.557640	 34.166230	-38.496990	-3.178028	-2.096820	-26.669410	-1.545763	-23.274380	-9.538395	-4.783737	 21.374200	-2.933046	-3.642274	 24.415860	 1.959850	-4.481250	 9.297730	-0.084050	 0.365209	-5.360441	 0.193058	-2.786080	 3.207525	 2.344507	 88.998750	 60.429720	 178.209300	-11.610110	 54.924410	-6.723031	-6.875219	-4.503331	 15.099200	-6.230729	-9.649054	-2.439413	 6.390810	 8.795641	 0.587816	 3.387349	 28.983830	-8.269670	 3.670809	 8.889985	 2.325544
